# xmcd
#
# Track frame offsets:
# 150
# 14920
# 28377
# 43587
# 56570
# 71302
# 86515
# 107302
# 121142
# 138460
# 152260
#
# Disc length: 2304 seconds
#
#
# Revision: 0
# Processed by: cddbd v1.5.2PL0 Copyright (c) Steve Scherf et al.
# Submitted via: Nero 7, 11, 10, 0 
#
DISCID=8908fe0b
DTITLE=Tommy Ridgley - How Long?
DYEAR=1992
DGENRE=Blues
TTITLE0=How Long?
TTITLE1=Bad Luck
TTITLE2=You Are The Lady
TTITLE3=The Way I Feel About You
TTITLE4=About My Past
TTITLE5=I Love You Yes I Do
TTITLE6=I'm Gonna Cross That River
TTITLE7=You Mean Everything To Me
TTITLE8=All Wrapped Up In You
TTITLE9=I Don't Want Nobody Else
TTITLE10=Ooh Poo Pah Doo
EXTD=
EXTT0=How Long?
EXTT1=Bad Luck
EXTT2=You Are The Lady
EXTT3=The Way I Feel About You
EXTT4=About My Past
EXTT5=I Love You Yes I Do
EXTT6=I'm Gonna Cross That River
EXTT7=You Mean Everything To Me
EXTT8=All Wrapped Up In You
EXTT9=I Don't Want Nobody Else
EXTT10=Ooh Poo Pah Doo
PLAYORDER=
